<svg width="369" height="192" viewBox="0 0 369 192" fill="none" xmlns="http://www.w3.org/2000/svg">
<path d="M211.589 61.262C213.249 61.262 214.577 63.1403 214.577 65.0572C214.577 67.7681 212.675 68.5812 212.405 70.2078C212.045 72.3764 215.394 76.4428 216.753 76.7139C218.111 76.9849 224.903 90.8102 226.262 92.4367C229.658 96.5029 237.499 92.5743 239.03 91.3523C240.388 90.268 245.55 86.7439 245.279 82.4066C244.986 77.7357 240.388 77.7981 237.671 79.9668C236.434 80.9542 233.324 79.1536 233.324 76.1716C233.324 73.1897 236.855 74.274 238.486 75.0873C239.965 75.8242 253.429 78.6114 255.06 78.8825C256.69 79.1536 259.798 83.4149 261.037 84.0331C262.667 84.8463 264.297 83.4909 265.112 84.8463C265.616 85.6844 268.646 95.9608 270.004 99.756C271.363 103.551 275.98 101.111 274.623 95.9608C273.226 90.6583 280.055 85.6596 283.859 83.762C291.084 80.1575 293.368 92.6538 295.544 92.4367C298.261 92.1656 298.261 94.0632 298.261 96.503C298.261 98.9427 300.161 98.4005 300.706 97.5873C301.044 97.0835 302.743 95.6897 304.238 98.6717C304.781 99.756 307.497 104.635 310.487 99.2138C313.542 93.6752 308.583 89.9969 307.225 87.8282C305.674 85.3524 308.855 83.4909 310.215 84.5753C311.164 85.3321 312.926 87.8446 314.562 84.5753C315.115 83.4698 317.918 82.5485 320.266 80.7801C322.525 79.0792 323.525 76.7138 324.07 75.0873C325.879 69.6883 318.908 66.6837 319.181 64.2439C319.525 61.1726 318.603 61.7796 316.462 60.1776C315.376 59.3644 316.174 56.6536 318.366 56.6536C319.723 56.6536 319.994 58.6867 322.711 58.009C324.028 57.6806 326.787 61.5331 327.602 63.4307C328.207 64.8402 332.836 63.3936 328.69 59.6355C325.7 56.9246 327.06 52.8584 328.69 52.5874C333.851 51.7292 333.037 43.9127 331.679 41.2018C329.824 37.5011 327.253 38.792 323.528 37.6777C320.809 36.8644 321.625 33.0692 322.441 31.985C324.344 29.4584 327.328 29.9511 330.047 30.6295C334.393 31.7138 335.754 28.4609 337.113 27.1055C338.471 25.75 342.273 26.2921 342.002 30.9006C341.778 34.6957 343.903 36.3223 345.805 37.9488C347.556 39.4457 351.238 37.4065 349.066 34.1536C348.523 33.3401 345.534 31.1717 347.435 29.2741C348.936 27.777 349.609 27.9186 350.152 28.7319C350.696 29.5451 351.334 29.9927 353.141 28.1897C355.719 25.618 353.414 24.6657 352.328 23.8524C351.241 23.0392 352.054 21.4126 354.499 21.4126C356.945 21.4126 356.355 19.8973 355.588 19.5151C354.499 18.9729 342.273 18.7018 336.296 17.8885C330.374 17.0827 320.547 16.5332 315.921 16.5332C308.855 16.5332 308.31 14.6355 306.953 13.8223C305.764 13.1096 304.238 13.8224 302.608 15.1778C300.978 16.5332 295.815 15.7199 293.37 14.6356C290.925 13.5513 275.71 13.8224 273.808 13.8224C272.287 13.8224 271.795 13.009 272.178 11.11C272.743 8.30818 264.026 9.21385 261.31 9.48351C258.595 9.75317 252.163 11.7425 248.541 12.4654C245.552 13.0076 246.095 15.4474 246.095 17.8871C245.859 18.516 245.214 19.1164 244.465 19.536M211.589 61.262C210.502 61.262 208.872 62.0752 206.698 61.8042C202.893 61.3295 202.894 59.6524 202.894 57.4669C202.894 55.5692 199.997 55.4677 199.906 56.9246C199.634 61.262 196.917 61.8042 196.104 59.9066C195.428 58.3303 194.199 53.9427 190.397 51.774C186.889 49.7733 184.691 49.6054 186.323 52.0452C187.229 53.4005 191.605 54.9983 191.213 57.4669C190.397 62.6174 185.199 61.3709 187.41 59.3645C190.397 56.6536 186.594 55.5699 184.963 54.2138C183.333 52.8584 180.887 50.6897 179.801 52.3162C178.985 53.5361 176.269 52.8584 175.455 53.1295C174.303 53.5137 168.661 61.5331 166.489 61.8042C160.802 62.5142 160.196 57.6509 160.784 55.2982C161.325 53.1295 163.771 51.348 166.76 51.7741C170.02 52.2386 169.748 49.1982 168.391 48.5211C166.76 47.7078 167.681 47.0587 168.661 46.0813C169.204 45.5391 167.558 45.3174 167.846 44.4548C168.118 43.6416 168.933 43.3704 170.563 43.3704C172.193 43.3704 173.693 42.4851 174.91 41.4728C176.54 40.1174 180.346 36.3223 183.061 36.3223C186.049 36.3223 189.31 37.1355 192.571 36.5933C194.202 36.3223 194.472 32.7982 196.375 32.7982C198.295 32.7982 196.531 30.7536 197.19 30.3585C198.547 29.5451 198.004 28.4608 196.375 28.4608C195.288 28.4608 195.449 26.8158 195.288 26.0198C195.015 24.6656 193.385 24.1235 192.298 25.2078C191.059 26.4441 191.304 28.7311 191.213 29.815C191.213 32.074 189.853 36.5933 185.234 33.6114C183.604 32.7982 181.433 30.0861 180.346 30.6283C179.259 31.1704 177.899 29.5451 178.714 27.9186C179.257 26.8343 180.072 26.2921 181.161 26.0198C183.285 25.4882 190.688 15.3165 194.744 15.991C198.004 16.5331 202.079 16.5331 203.981 16.8042C204.615 16.8946 206.972 17.1823 208.058 17.616C209.417 18.1582 214.034 19.244 210.775 21.4126C207.513 23.0391 208.872 24.6656 210.775 24.122C213.649 23.3015 219.196 18.7018 221.915 18.4293C224.087 18.4293 227.347 18.9729 228.164 18.1582C228.856 17.4678 229.52 17.3449 230.609 17.3449C232.932 17.3449 234.684 18.1582 235.499 18.7004C236.858 19.604 239.031 19.5136 237.673 17.616C235.226 16.262 234.413 13.5498 236.858 13.0076C240.66 12.7379 240.988 18.3751 241.205 19.2425C241.508 20.4523 243.147 20.2738 244.465 19.536M211.589 61.262C212.041 60.9005 214.1 60.0681 215.394 59.9066C217.566 59.6355 223.544 59.6355 224.359 59.6355C225.175 59.6355 231.336 59.1378 233.054 58.2801C235.226 57.1957 237.671 55.0271 238.488 53.4006C239.258 51.8682 238.109 45.5391 238.759 43.9127C239.301 42.5572 241.068 36.1611 242.563 34.9669C243.92 33.8825 244.103 24.4085 244.465 19.536M57.5398 100.569C58.0832 101.383 59.3316 103.063 59.9836 103.28C60.7987 103.551 65.6082 107.059 65.1458 109.515C64.3293 113.853 62.4289 115.208 62.4289 116.563C62.4289 118.461 61.8855 123.069 62.7006 123.612C63.5156 124.154 67.5911 132.557 68.4061 134.184C69.0935 135.555 79.0022 142.316 79.2739 143.672C79.5456 145.027 80.3606 167.798 80.6323 169.154C80.904 170.509 80.6337 173.22 81.1771 174.033C81.5142 174.537 83.621 177.828 84.1644 179.184C84.7077 180.539 84.1644 183.25 84.4361 184.063C84.5576 184.427 89.3265 190.027 90.9567 190.84C91.7718 191.247 93.1316 190.874 93.1316 189.756C93.1316 188.401 93.9481 184.876 93.675 184.063C93.4019 183.25 91.7732 182.437 92.0449 181.352C92.3166 180.268 93.4019 178.913 92.5883 177.015C91.9124 175.439 92.5869 174.846 93.9453 174.575C95.3038 174.304 93.9453 172.407 95.3038 171.865C96.5901 171.351 99.3792 171.322 99.3792 169.425C99.3792 167.617 98.1584 164.816 99.9226 165.087C103.453 165.63 105.356 160.479 106.716 156.684C108.048 152.967 108.073 150.371 109.433 150.178C111.335 149.907 115.953 147.738 117.041 144.485C118.342 140.594 119.213 131.473 121.115 129.033C121.642 128.357 121.794 124.425 120.571 122.798C119.756 121.714 116.768 118.732 113.507 119.003C110.247 119.274 107.53 116.563 106.715 116.563C105.9 116.563 105.628 115.208 103.999 115.479C101.2 115.945 105.356 111.142 99.924 108.16C94.4915 105.178 86.8813 99.214 84.1644 99.4851C80.6309 99.8376 79.5456 98.1296 78.4588 98.1296C77.372 98.1296 77.1003 100.569 76.2852 100.298C75.3559 99.9894 74.6551 98.1296 72.7546 98.9427C70.954 99.7132 69.3039 101.303 67.5911 101.925C64.6024 103.009 61.1873 101.268 59.5863 99.2138M57.5398 100.569C56.9959 100.208 55.8357 98.2779 55.6379 97.5873C55.0946 95.6897 53.1923 94.8765 52.6479 94.3343C52.1035 93.7921 39.6066 89.9971 36.8897 88.9128C34.1727 87.8284 31.4558 79.6959 30.6407 78.3405C29.8256 76.9851 27.1087 70.75 26.5653 70.2078C26.0219 69.6657 25.2068 69.9369 24.6635 69.6658C23.895 69.2824 24.1201 68.8524 23.8484 67.7681C23.5767 66.6837 20.66 64.9299 20.3164 64.2441C20.0447 63.702 19.773 60.4488 19.773 58.009C19.773 55.5693 21.1314 53.9429 21.4031 53.6718C21.6748 53.4008 27.1087 47.1657 27.6521 45.2681C28.1955 43.3705 27.895 34.6238 27.3804 33.3404C26.837 31.9851 24.6635 30.0875 23.5767 29.5454C22.4899 29.0032 18.1428 28.4609 15.4259 28.732C12.7089 29.003 9.72031 30.0874 7.27507 31.1717C4.82982 32.256 2.9097 32.5013 1.56974 30.6295C0.211298 28.732 1.56966 27.7518 2.65689 26.2924C3.66671 24.9368 5.37344 25.4789 6.46051 24.9368C8.36226 23.9883 6.7321 23.5815 6.46051 23.0392C5.84135 21.8028 8.09067 21.6838 8.63406 21.6838C9.17745 21.6838 10.264 22.2261 11.0792 21.6838C12.2095 20.9318 10.2641 19.2442 14.0678 18.1597C15.8203 17.66 19.7734 16.2622 29.2827 15.9912C36.1209 15.7962 36.075 15.449 38.2487 18.1597C39.4727 19.6861 46.1277 17.6175 50.4749 17.0753C54.6601 16.5534 61.6142 17.6175 63.244 18.9731C64.4607 19.9852 66.0371 21.0009 67.0482 20.3284C70.3084 18.1598 72.482 19.5153 76.0135 20.0574C79.5045 20.5933 80.6329 18.4309 82.8064 15.9912C84.98 13.5514 86.6096 17.0755 87.4247 17.8887C88.2398 18.702 88.9957 17.6175 91.5006 17.6175C94.217 17.6175 91.5001 19.5153 90.9567 19.7863C90.4133 20.0574 87.1535 21.9549 86.3384 22.2259C85.5233 22.497 84.844 21.5753 83.8927 21.955C82.9413 22.3347 83.0781 23.5814 82.8064 23.8524C81.7195 24.9369 75.0691 26.4221 73.5688 27.9187C71.9381 29.5454 72.2098 32.5273 72.7532 33.3405C73.3746 34.2705 75.4702 34.967 77.1003 35.5092C78.7305 36.0514 79.5456 36.2465 79.5456 38.2201C79.5456 39.5755 79.9607 40.6598 81.1757 40.6598C82.5337 40.6598 83.0776 39.3044 83.621 37.949C84.1644 36.5936 84.9794 36.0514 86.0662 36.0514C87.153 36.0514 87.9007 35.6483 88.2403 33.6115C88.5115 31.9851 88.2403 28.7321 92.3157 27.1055C94.217 26.3466 96.3906 27.3767 97.2057 27.9189C98.5641 28.8225 98.2929 31.7139 101.825 30.9006C105.357 30.0874 104.057 34.5606 104.813 34.967C108.345 36.8646 105.629 41.744 104.542 42.2862C103.455 42.8283 97.2246 42.8917 96.3911 43.0996C95.3038 43.3707 95.1823 44.2125 95.3038 44.455C95.5755 44.9972 96.5264 45.2682 96.1189 46.0815C95.7113 46.8947 95.5755 47.1658 97.2057 48.2502C98.8358 49.3345 95.8477 50.6898 95.0326 51.2319C94.2175 51.7741 93.6742 50.9608 93.4025 49.8765C93.1308 48.7922 91.2284 49.6056 90.6855 49.8765C90.1995 50.1191 86.8813 53.6718 86.0667 54.4849C85.3742 55.1762 83.6656 55.5693 82.8064 55.5693C81.9908 55.5693 77.3332 61.2622 76.5569 62.3465C75.1985 64.2441 69.6214 67.0999 68.6778 68.3104C66.776 70.7501 67.5911 75.2656 67.5911 76.1718C67.5911 77.7983 65.9609 77.5272 65.6897 76.4428C65.5427 75.8546 65.418 74.8163 65.1463 73.7319C64.8746 72.6476 62.4906 70.9158 61.6143 70.4789C60.527 69.9369 57.8101 70.8398 57.5384 71.6531C57.2667 72.4663 55.2374 72.2907 54.2781 71.6531C52.9196 70.7501 53.1913 71.8345 48.8442 73.1899C44.4971 74.5453 42.9886 81.6695 43.683 84.3042C45.0405 89.4548 50.746 88.9548 53.1923 85.1175C55.0931 82.1357 56.7247 86.2019 55.6379 87.8283C54.9985 88.7852 54.8251 91.7865 56.4516 91.8947C60.527 92.1658 59.17 94.8765 59.17 97.5873C59.17 97.971 59.3224 98.8751 59.5863 99.2138M57.5398 100.569L59.5863 99.2138M178.716 61.8042C182.789 61.5331 183.062 63.3765 183.062 64.244C183.062 65.3283 184.148 66.9548 185.236 67.2259C185.763 67.3571 191.483 71.2921 193.93 70.4789C195.219 70.0505 195.83 67.2259 198.277 67.7681C199.706 68.0847 202.088 70.378 203.71 70.2078C208.872 69.6656 212.676 71.5633 213.492 73.4609C214.307 75.3584 215.382 76.817 217.295 81.5934C218.924 85.6596 224.136 97.259 227.075 99.2138C228.705 100.298 238.215 98.1294 234.412 105.178C232.944 107.899 224.358 117.105 221.37 121.985C220.291 123.746 223.271 134.726 221.37 137.166C219.468 139.605 215.376 142.316 215.665 147.196C215.938 151.804 209.687 156.413 207.786 158.852C206.352 160.694 199.019 168.867 194.201 162.648C189.581 156.684 189.311 153.431 189.311 150.449C189.311 148.28 187.245 145.244 186.593 143.943C185.778 142.316 184.63 139.175 186.321 136.081C187.951 133.099 186.321 126.721 186.321 125.509C186.321 122.256 181.248 118.98 181.704 116.021C182.246 112.497 180.235 109.694 178.715 108.431C175.453 105.72 171.107 105.72 168.662 106.262C166.217 106.804 157.793 109.515 155.078 105.449C153.056 102.422 149.755 99.3259 149.371 98.9427C148.283 97.8583 146.926 95.9608 147.469 93.7921C147.891 92.1081 148.455 79.9182 151.002 77.7982C152.631 76.4427 161.597 63.9599 164.314 63.7017C167.338 63.4145 173.406 63.6229 174.368 63.4307C175.725 63.1596 177.627 61.8767 178.716 61.8042ZM227.347 144.214C226.532 145.84 225.446 146.892 225.446 148.009C225.446 150.449 228.434 152.075 230.065 151.533C231.887 150.928 232.928 147.196 233.054 145.298C233.324 141.232 235.498 138.792 234.954 136.894C234.685 135.955 234.139 134.997 233.324 135.268C232.171 135.651 231.422 136.894 228.977 137.979C227.221 138.757 227.619 141.774 227.347 144.214ZM304.238 113.581C303.421 112.768 302.876 111.955 301.791 112.768C300.706 113.581 300.161 114.937 302.063 116.834C303.149 117.919 303.151 119.003 304.238 120.358C305.324 121.714 306.41 123.104 307.226 122.798C308.855 122.188 307.865 120.068 306.41 117.647C305.595 116.292 305.323 114.937 304.238 113.581ZM314.562 115.75C314.562 117.648 315.819 118.789 317.277 119.274C318.908 119.816 321.496 119 322.713 118.19C324.342 117.105 325.972 113.852 325.7 111.684C325.428 109.515 324.938 104.822 321.626 107.617C318.093 110.599 314.562 113.852 314.562 115.75ZM363.739 129.575C364.554 130.117 365.911 130.931 367.269 130.66C368.868 130.341 367.541 129.846 366.182 128.762C364.824 127.678 362.65 125.78 362.108 123.882C361.721 122.527 358.624 120.141 356.673 119.816C355.043 119.545 353.958 117.105 351.512 118.732C349.067 120.358 347.982 119.274 347.165 118.732C346.349 118.19 344.447 114.937 343.632 117.376C343.008 119.242 346.165 121.079 346.894 121.443C348.522 122.256 351.69 122.769 351.783 123.882C352.054 127.135 355.043 128.329 357.49 127.678C361.564 126.593 361.835 127.949 363.739 129.575ZM331.406 161.563C332.673 161.202 335.209 160.208 336.841 161.021C338.056 161.627 339.285 164.545 340.371 164.274C341.458 164.003 343.36 163.461 343.632 165.358C343.903 167.256 343.682 170.818 345.535 171.322C348.522 172.135 353.141 171.322 356.673 167.527C358.242 165.841 364.825 159.123 364.825 157.226C364.825 155.599 366.726 151.262 364.28 147.738C363.406 146.477 359.391 143.672 359.391 140.961C359.391 137.426 357.76 134.455 354.501 136.895C353.414 137.708 352.978 142.316 348.794 139.334C347.603 138.486 347.437 136.145 347.437 135.539C347.437 133.913 344.992 131.473 342.818 132.828C340.645 134.184 338.423 137.549 337.654 137.166C336.568 136.623 334.936 134.997 333.851 136.895C333.177 138.072 325.7 144.756 323.8 145.027C322.597 145.199 317.821 146.925 316.734 150.178C316.08 152.136 314.832 161.984 320.268 163.19C322.711 163.732 330.59 161.766 331.406 161.563ZM69.2212 14.3645C71.9381 14.0936 74.5464 14.1478 75.1985 14.3647C76.0135 14.6357 77.1003 15.9912 75.1985 16.8044C73.2966 17.6177 71.204 17.152 68.4061 17.6175C66.776 17.8887 65.4175 18.1598 64.6024 17.3466C63.7873 16.5333 63.244 14.3645 62.1572 14.3645C61.0704 14.3645 60.6176 13.0092 61.3421 11.9249C61.8855 11.1116 63.5156 11.6538 64.3307 12.196C65.1458 12.7382 67.8627 14.3645 69.2212 14.3645ZM92.0435 14.3645C92.0435 15.1779 92.0435 16.5333 95.3038 15.449C97.1264 14.8428 101.026 16.8692 101.553 18.9731C102.368 22.2261 99.1075 21.9549 98.5641 23.0393C98.1567 23.8524 99.2686 25.1699 99.6509 25.208C102.368 25.4791 103.356 27.4323 104.27 26.2924C105.356 24.9368 106.715 24.6659 106.987 23.5815C107.122 23.0393 106.443 23.0393 106.443 21.9549C106.443 20.8373 107.258 20.8707 107.802 20.5996C108.345 20.3285 108.345 19.2442 107.802 18.1598C107.258 17.0755 106.536 15.037 105.356 14.3645C103.455 13.2803 95.8472 12.196 94.217 12.4669C93.0185 12.6661 92.0435 13.0091 92.0435 14.3645ZM97.749 4.87343C97.1329 5.3345 96.7004 6.46007 97.4779 7.04216C98.5641 7.85542 101.904 10.085 105.9 8.94283C109.704 7.85542 117.827 4.60861 119.213 4.60548C120.571 4.60241 121.115 5.14759 120.843 5.96084C120.571 6.77409 118.398 6.5 118.669 7.58433C119.2 9.70318 123.322 10.0241 123.832 14.0934C124.103 16.262 123.832 18.1597 122.745 18.7018C121.658 19.244 120.3 20.0573 120.843 21.9549C121.386 23.8524 122.745 28.4547 125.462 27.6446C128.722 26.6723 130.624 21.4096 134.156 20.8674C136.895 20.4471 138.238 18.2701 140.133 18.4277C143.394 18.6988 147.325 17.2218 148.284 16.262C149.371 15.1747 150.729 10.8373 152.088 10.5663C153.42 10.3004 154.916 10.3486 155.348 9.48494C155.891 8.39758 157.25 6.77108 158.065 5.96084C158.792 5.23805 158.337 3.51807 157.522 2.97891C155.458 1.61374 137.521 1.73939 124.918 1.62436C117.954 1.5608 113.779 0.744053 112.42 1.08133C109.706 1.75524 98.8358 4.06022 97.749 4.87343Z" stroke="black"/>
</svg>
