<svg width="1063" height="550" viewBox="0 0 1063 550" fill="none" xmlns="http://www.w3.org/2000/svg">
<path d="M609.666 175.174C614.456 175.174 618.29 180.572 618.29 186.08C618.29 193.87 612.802 196.207 612.023 200.881C610.984 207.113 620.647 218.799 624.567 219.578C628.486 220.357 648.086 260.086 652.006 264.76C661.806 276.445 684.431 265.156 688.849 261.644C692.769 258.528 707.664 248.401 706.88 235.937C706.036 222.514 692.769 222.694 684.929 228.926C681.359 231.763 672.385 226.589 672.385 218.02C672.385 209.45 682.572 212.566 687.281 214.903C691.547 217.021 730.4 225.031 735.104 225.81C739.808 226.589 748.776 238.834 752.352 240.611C757.056 242.948 761.76 239.053 764.112 242.948C765.566 245.356 774.308 274.887 778.228 285.794C782.148 296.7 795.471 289.688 791.556 274.887C787.525 259.65 807.231 245.285 818.207 239.832C839.055 229.474 845.646 265.384 851.923 264.76C859.763 263.981 859.763 269.434 859.763 276.445C859.763 283.457 865.246 281.898 866.819 279.561C867.793 278.113 872.698 274.108 877.011 282.678C878.578 285.794 886.414 299.816 895.042 284.236C903.857 268.319 889.55 257.749 885.63 251.517C881.154 244.402 890.334 239.053 894.258 242.169C896.997 244.344 902.082 251.564 906.802 242.169C908.398 238.992 916.485 236.345 923.261 231.263C929.779 226.375 932.664 219.578 934.237 214.903C939.457 199.389 919.341 190.754 920.13 183.743C921.123 174.917 918.462 176.661 912.285 172.058C909.149 169.721 911.452 161.931 917.778 161.931C921.693 161.931 922.477 167.773 930.317 165.826C934.115 164.882 942.077 175.953 944.429 181.406C946.176 185.456 959.532 181.299 947.569 170.5C938.941 162.71 942.865 151.025 947.569 150.246C962.46 147.78 960.113 125.317 956.193 117.527C950.842 106.893 943.421 110.602 932.674 107.4C924.829 105.063 927.181 94.1569 929.538 91.041C935.029 83.7805 943.64 85.1964 951.485 87.1458C964.024 90.2617 967.953 80.9139 971.873 77.0188C975.793 73.1238 986.764 74.6816 985.98 87.9248C985.334 98.8307 991.468 103.505 996.956 108.179C1002.01 112.481 1012.63 106.621 1006.36 97.2729C1004.8 94.9354 996.172 88.7038 1001.66 83.2507C1005.99 78.9485 1007.93 79.3557 1009.5 81.6927C1011.07 84.0297 1012.91 85.3158 1018.12 80.1347C1025.56 72.7444 1018.91 70.0077 1015.78 67.6707C1012.64 65.3337 1014.99 60.6594 1022.04 60.6594C1029.1 60.6594 1027.4 56.3049 1025.18 55.2065C1022.04 53.6484 986.764 52.8694 969.516 50.5323C952.427 48.2167 924.073 46.6375 910.722 46.6375C890.334 46.6375 888.761 41.1842 884.846 38.8472C881.415 36.7993 877.011 38.8474 872.307 42.7424C867.603 46.6374 852.707 44.3004 845.651 41.1844C838.595 38.0683 794.692 38.8474 789.204 38.8474C784.814 38.8474 783.396 36.5102 784.5 31.053C786.129 23.0014 760.976 25.604 753.141 26.3789C745.305 27.1538 726.746 32.8707 716.293 34.948C707.669 36.5061 709.237 43.5171 709.237 50.5282C708.555 52.3355 706.694 54.0608 704.532 55.2665M609.666 175.174C606.53 175.174 601.826 177.511 595.554 176.732C584.573 175.368 584.578 170.549 584.578 164.268C584.578 158.815 576.218 158.523 575.954 162.71C575.17 175.174 567.331 176.732 564.983 171.279C563.034 166.749 559.486 154.141 548.515 147.909C538.394 142.159 532.051 141.676 536.76 148.688C539.376 152.583 552.001 157.174 550.872 164.268C548.515 179.069 533.516 175.487 539.896 169.721C548.515 161.931 537.541 158.817 532.835 154.92C528.131 151.025 521.075 144.793 517.939 149.467C515.587 152.972 507.748 151.025 505.4 151.804C502.075 152.908 485.796 175.953 479.529 176.732C463.118 178.772 461.369 164.797 463.065 158.036C464.628 151.804 471.684 146.684 480.311 147.909C489.716 149.243 488.932 140.506 485.015 138.561C480.311 136.224 482.969 134.358 485.796 131.549C487.364 129.991 482.612 129.354 483.444 126.875C484.228 124.538 486.58 123.759 491.284 123.759C495.988 123.759 500.315 121.215 503.828 118.306C508.531 114.411 519.513 103.505 527.347 103.505C535.971 103.505 545.379 105.842 554.79 104.284C559.496 103.505 560.275 93.378 565.766 93.378C571.306 93.378 566.215 87.5025 568.118 86.3669C572.035 84.0297 570.467 80.9137 565.766 80.9137C562.63 80.9137 563.093 76.1866 562.63 73.8991C561.843 70.0076 557.139 68.4495 554.003 71.5656C550.427 75.1184 551.133 81.6904 550.872 84.8052C550.872 91.297 546.947 104.284 533.619 95.7149C528.915 93.3779 522.649 85.5842 519.513 87.1422C516.377 88.7003 512.451 84.0297 514.803 79.3557C516.371 76.2396 518.723 74.6816 521.864 73.8991C527.995 72.3714 549.356 43.1412 561.059 45.0793C570.467 46.6373 582.226 46.6373 587.714 47.4163C589.544 47.676 596.343 48.5028 599.479 49.7492C603.399 51.3072 616.722 54.4274 607.319 60.6594C597.906 65.3335 601.826 70.0076 607.319 68.4454C615.61 66.0875 631.618 52.8693 639.462 52.0862C645.729 52.0862 655.137 53.6484 657.494 51.3072C659.491 49.3233 661.409 48.9702 664.55 48.9702C671.252 48.9702 676.31 51.3072 678.662 52.8652C682.582 55.4619 688.854 55.2023 684.934 49.7492C677.873 45.8583 675.526 38.0641 682.582 36.5061C693.553 35.7311 694.498 51.9304 695.125 54.4233C696 57.8996 700.73 57.3868 704.532 55.2665M609.666 175.174C610.972 174.135 616.911 171.743 620.645 171.279C626.914 170.5 644.165 170.5 646.517 170.5C648.869 170.5 666.647 169.07 671.604 166.605C677.873 163.489 684.929 157.257 687.286 152.583C689.506 148.179 686.191 129.991 688.068 125.317C689.633 121.422 694.731 103.042 699.044 99.6101C702.96 96.4939 703.487 69.2687 704.532 55.2665M165.149 288.131C166.717 290.468 170.319 295.298 172.201 295.921C174.553 296.7 188.431 306.78 187.096 313.838C184.74 326.303 179.257 330.198 179.257 334.093C179.257 339.546 177.689 352.789 180.041 354.347C182.393 355.905 194.152 380.054 196.504 384.728C198.488 388.67 227.08 408.099 227.864 411.994C228.648 415.889 231 481.325 231.784 485.221C232.568 489.116 231.788 496.906 233.356 499.242C234.328 500.692 240.408 510.149 241.976 514.044C243.544 517.939 241.976 525.729 242.76 528.066C243.11 529.111 256.871 545.204 261.575 547.541C263.927 548.71 267.851 547.637 267.851 544.425C267.851 540.53 270.207 530.402 269.419 528.066C268.631 525.729 263.931 523.392 264.715 520.276C265.499 517.16 268.631 513.265 266.283 507.811C264.333 503.282 266.279 501.58 270.199 500.801C274.119 500.022 270.199 494.569 274.119 493.011C277.831 491.535 285.879 491.453 285.879 486C285.879 480.805 282.356 472.757 287.447 473.535C297.635 475.094 303.127 460.292 307.051 449.386C310.893 438.705 310.967 431.246 314.891 430.689C320.378 429.91 333.702 423.679 336.842 414.33C340.598 403.149 343.11 376.938 348.598 369.927C350.12 367.983 350.558 356.684 347.03 352.01C344.678 348.894 336.054 340.325 326.646 341.104C317.238 341.883 309.399 334.093 307.047 334.093C304.695 334.093 303.911 330.198 299.211 330.976C291.133 332.314 303.127 318.512 287.451 309.943C271.775 301.373 249.815 284.236 241.976 285.015C231.78 286.028 228.648 281.12 225.512 281.12C222.376 281.12 221.592 288.131 219.24 287.352C216.558 286.464 214.536 281.12 209.052 283.457C203.856 285.67 199.095 290.24 194.152 292.026C185.529 295.142 175.674 290.139 171.054 284.236M165.149 288.131C163.58 287.092 160.232 281.546 159.661 279.561C158.093 274.108 152.604 271.771 151.033 270.213C149.462 268.655 113.402 257.75 105.562 254.634C97.7219 251.518 89.882 228.147 87.53 224.252C85.1781 220.357 77.3382 202.439 75.7702 200.881C74.2022 199.323 71.8503 200.103 70.2823 199.324C68.0649 198.222 68.7143 196.986 67.9303 193.87C67.1464 190.754 58.7302 185.714 57.7385 183.744C56.9545 182.186 56.1705 172.837 56.1705 165.826C56.1705 158.815 60.0905 154.141 60.8745 153.362C61.6584 152.583 77.3382 134.666 78.9062 129.212C80.4741 123.759 79.607 98.6241 78.1222 94.9361C76.5542 91.0415 70.2823 85.5884 67.1464 84.0304C64.0104 82.4723 51.4666 80.9139 43.6267 81.6929C35.7868 82.4719 27.163 85.5879 20.1071 88.704C13.0512 91.82 7.51055 92.5249 3.644 87.146C-0.275846 81.6929 3.64378 78.8764 6.78106 74.6822C9.69496 70.7867 14.6198 72.3448 17.7566 70.7867C23.2442 68.0611 18.5403 66.8921 17.7566 65.3337C15.97 61.7807 22.4606 61.4386 24.0285 61.4386C25.5965 61.4386 28.7318 62.9971 31.0841 61.4386C34.3455 59.2778 28.7321 54.428 39.708 51.3115C44.7647 49.8757 56.1717 45.8589 83.6113 45.0799C103.344 44.5197 103.211 43.5218 109.483 51.3115C113.015 55.6979 132.219 49.7535 144.763 48.1955C156.839 46.6955 176.906 49.7535 181.609 53.649C185.12 56.5574 189.668 59.4763 192.586 57.5436C201.993 51.3119 208.265 55.207 218.456 56.765C228.529 58.3051 231.785 52.091 238.057 45.0799C244.329 38.0688 249.032 48.1959 251.383 50.5329C253.735 52.87 255.917 49.7535 263.145 49.7535C270.983 49.7535 263.143 55.207 261.575 55.986C260.007 56.765 250.601 62.2176 248.249 62.9966C245.897 63.7757 243.937 61.127 241.192 62.2181C238.446 63.3092 238.841 66.8917 238.057 67.6707C234.921 70.7872 215.731 75.0552 211.402 79.3559C206.696 84.0304 207.48 92.5995 209.048 94.9365C210.841 97.609 216.888 99.6106 221.592 101.169C226.296 102.727 228.648 103.287 228.648 108.959C228.648 112.854 229.846 115.97 233.352 115.97C237.27 115.97 238.84 112.075 240.408 108.18C241.976 104.285 244.328 102.727 247.464 102.727C250.599 102.727 252.757 101.568 253.737 95.7151C254.519 91.0415 253.737 81.6933 265.497 77.0188C270.983 74.838 277.255 77.7983 279.607 79.3563C283.527 81.953 282.744 90.262 292.936 87.925C303.128 85.5879 299.376 98.4426 301.559 99.6106C311.751 105.064 303.912 119.085 300.776 120.643C297.64 122.201 279.662 122.384 277.257 122.981C274.119 123.76 273.769 126.179 274.119 126.876C274.903 128.434 277.647 129.213 276.471 131.55C275.295 133.887 274.903 134.666 279.607 137.782C284.311 140.898 275.689 144.793 273.337 146.351C270.985 147.909 269.417 145.572 268.633 142.456C267.849 139.34 262.359 141.677 260.793 142.456C259.39 143.153 249.815 153.362 247.465 155.699C245.467 157.685 240.536 158.815 238.057 158.815C235.704 158.815 222.264 175.175 220.024 178.291C216.104 183.744 200.011 191.95 197.288 195.429C191.8 202.44 194.152 215.416 194.152 218.02C194.152 222.694 189.448 221.915 188.666 218.799C188.242 217.109 187.882 214.125 187.098 211.009C186.314 207.893 179.435 202.916 176.906 201.66C173.769 200.103 165.929 202.698 165.145 205.035C164.361 207.372 158.505 206.867 155.737 205.035C151.817 202.44 152.601 205.556 140.057 209.451C127.513 213.346 123.161 233.819 125.164 241.39C129.081 256.191 145.545 254.754 152.604 243.727C158.089 235.158 162.797 246.843 159.661 251.517C157.816 254.267 157.315 262.892 162.009 263.203C173.769 263.982 169.853 271.771 169.853 279.561C169.853 280.664 170.293 283.262 171.054 284.236M165.149 288.131L171.054 284.236M514.809 176.732C526.563 175.953 527.351 181.25 527.351 183.743C527.351 186.859 530.483 191.533 533.624 192.312C535.144 192.689 551.651 203.997 558.71 201.66C562.429 200.429 564.195 192.312 571.254 193.87C575.377 194.78 582.252 201.371 586.93 200.881C601.826 199.323 612.804 204.777 615.157 210.23C617.511 215.683 620.612 219.874 626.133 233.6C630.834 245.285 645.873 278.618 654.353 284.235C659.057 287.351 686.497 281.119 675.524 301.374C671.288 309.195 646.513 335.65 637.889 349.672C634.776 354.735 643.377 386.286 637.889 393.297C632.402 400.308 620.595 408.098 621.429 422.12C622.217 435.363 604.178 448.607 598.693 455.618C594.555 460.909 573.396 484.397 559.494 466.524C546.163 449.386 545.382 440.037 545.382 431.468C545.382 425.236 539.421 416.511 537.539 412.772C535.187 408.098 531.875 399.071 536.755 390.181C541.459 381.612 536.755 363.283 536.755 359.799C536.755 350.451 522.117 341.038 523.431 332.534C524.995 322.407 519.192 314.352 514.807 310.722C505.396 302.932 492.855 302.932 485.799 304.49C478.743 306.048 454.436 313.838 446.6 302.153C440.767 293.455 431.242 284.557 430.133 283.456C426.993 280.34 423.077 274.887 424.645 268.655C425.862 263.816 427.49 228.786 434.841 222.694C439.541 218.799 465.412 182.927 473.252 182.185C481.978 181.359 499.489 181.958 502.264 181.406C506.18 180.627 511.667 176.94 514.809 176.732ZM655.137 413.551C652.785 418.225 649.653 421.246 649.653 424.457C649.653 431.468 658.273 436.142 662.981 434.585C668.238 432.845 671.241 422.12 671.605 416.667C672.385 404.982 678.657 397.971 677.089 392.518C676.312 389.817 674.737 387.065 672.385 387.844C669.059 388.945 666.897 392.518 659.841 395.634C654.775 397.871 655.921 406.54 655.137 413.551ZM877.011 325.523C874.654 323.186 873.081 320.849 869.95 323.186C866.819 325.523 865.246 329.418 870.734 334.871C873.87 337.987 873.875 341.103 877.011 344.998C880.146 348.893 883.278 352.888 885.634 352.009C890.334 350.257 887.478 344.164 883.278 337.208C880.926 333.313 880.142 329.418 877.011 325.523ZM906.802 331.755C906.802 337.208 910.43 340.489 914.637 341.882C919.341 343.44 926.809 341.095 930.321 338.766C935.021 335.65 939.725 326.302 938.941 320.07C938.157 313.838 936.743 300.352 927.185 308.385C916.989 316.954 906.802 326.302 906.802 331.755ZM1048.7 371.485C1051.06 373.043 1054.97 375.38 1058.89 374.601C1063.5 373.684 1059.67 372.263 1055.75 369.147C1051.84 366.031 1045.56 360.578 1044 355.125C1042.88 351.23 1033.95 344.372 1028.32 343.44C1023.61 342.661 1020.48 335.65 1013.42 340.324C1006.37 344.998 1003.24 341.882 1000.88 340.324C998.524 338.766 993.036 329.418 990.684 336.429C988.885 341.79 997.993 347.069 1000.1 348.114C1004.8 350.451 1013.94 351.925 1014.2 355.125C1014.99 364.473 1023.61 367.903 1030.67 366.032C1042.43 362.915 1043.21 366.81 1048.7 371.485ZM955.405 463.408C959.063 462.369 966.38 459.513 971.088 461.85C974.595 463.591 978.14 471.977 981.276 471.198C984.412 470.419 989.9 468.861 990.684 474.314C991.468 479.767 990.828 490.002 996.176 491.452C1004.8 493.789 1018.12 491.452 1028.32 480.546C1032.84 475.702 1051.84 456.397 1051.84 450.944C1051.84 446.27 1057.32 433.805 1050.27 423.678C1047.74 420.055 1036.16 411.993 1036.16 404.203C1036.16 394.046 1031.45 385.507 1022.05 392.518C1018.91 394.856 1017.65 408.098 1005.58 399.529C1002.14 397.091 1001.66 390.365 1001.66 388.623C1001.66 383.949 994.608 376.938 988.336 380.833C982.064 384.728 975.654 394.399 973.436 393.297C970.3 391.739 965.592 387.065 962.46 392.518C960.518 395.901 938.941 415.109 933.457 415.888C929.986 416.381 916.205 421.341 913.069 430.689C911.181 436.318 907.581 464.617 923.265 468.082C930.317 469.64 953.053 463.991 955.405 463.408ZM198.856 40.4054C206.696 39.6268 214.222 39.7826 216.104 40.4058C218.456 41.1848 221.592 45.0799 216.104 47.4169C210.616 49.7539 204.578 48.4157 196.504 49.7535C191.8 50.5329 187.88 51.3119 185.529 48.9749C183.177 46.6379 181.609 40.4054 178.473 40.4054C175.337 40.4054 174.03 36.5108 176.121 33.3947C177.689 31.0577 182.393 32.6157 184.745 34.1737C187.096 35.7317 194.936 40.4054 198.856 40.4054ZM264.711 40.4054C264.711 42.7428 264.711 46.6379 274.119 43.5218C279.378 41.7799 290.63 47.603 292.151 53.649C294.503 62.9971 285.095 62.2176 283.527 65.3341C282.351 67.6707 285.56 71.4566 286.663 71.5662C294.503 72.3452 297.353 77.9582 299.991 74.6822C303.127 70.7867 307.047 70.0082 307.831 66.8921C308.223 65.3341 306.263 65.3341 306.263 62.2176C306.263 59.0061 308.615 59.102 310.183 58.323C311.751 57.544 311.751 54.428 310.183 51.3119C308.615 48.1959 306.53 42.3378 303.127 40.4054C297.639 37.2898 275.687 34.1737 270.983 34.9523C267.525 35.5247 264.711 36.5103 264.711 40.4054ZM281.175 13.131C279.397 14.456 278.149 17.6905 280.393 19.3633C283.527 21.7003 293.166 28.1075 304.695 24.8252C315.67 21.7003 339.112 12.37 343.11 12.361C347.03 12.3522 348.598 13.9189 347.814 16.2559C347.03 18.5929 340.758 17.8053 341.542 20.9213C343.074 27.0102 354.967 27.9324 356.438 39.6262C357.222 45.8583 356.438 51.3117 353.302 52.8695C350.166 54.4274 346.246 56.7646 347.814 62.2176C349.382 67.6707 353.302 80.8962 361.142 78.568C370.55 75.7742 376.038 60.6508 386.229 59.0928C394.132 57.8848 398.008 51.6288 403.477 52.0817C412.885 52.8607 424.229 48.6163 426.997 45.8583C430.133 42.7336 434.053 30.2694 437.973 29.4904C441.816 28.7265 446.135 28.8649 447.38 26.383C448.948 23.2583 452.868 18.5843 455.22 16.2559C457.318 14.1788 456.004 9.23614 453.652 7.68677C447.697 3.7637 395.941 4.12476 359.574 3.79421C339.478 3.61156 327.43 1.26449 323.51 2.23371C315.678 4.17032 284.311 10.7941 281.175 13.131Z" stroke="black" stroke-width="3"/>
</svg>
